<svg width="24" height="24" viewBox="0 0 24 24" fill="none" xmlns="http://www.w3.org/2000/svg">
<path fill-rule="evenodd" clip-rule="evenodd" d="M2.36004 9.89098C2.14405 9.53754 2.25547 9.07592 2.60891 8.85993L11.6089 3.35993C11.849 3.21321 12.151 3.21321 12.3911 3.35993L21.3911 8.85993C21.7445 9.07592 21.856 9.53754 21.64 9.89098C21.424 10.2444 20.9624 10.3558 20.6089 10.1399L12 4.87885L3.39109 10.1399C3.03765 10.3558 2.57603 10.2444 2.36004 9.89098Z" fill="#33836E"/>
<path fill-rule="evenodd" clip-rule="evenodd" d="M4.25 20C4.25 19.5858 4.58579 19.25 5 19.25H19C19.4142 19.25 19.75 19.5858 19.75 20C19.75 20.4142 19.4142 20.75 19 20.75H5C4.58579 20.75 4.25 20.4142 4.25 20Z" fill="#33836E"/>
<path fill-rule="evenodd" clip-rule="evenodd" d="M9.25 9C9.25 8.58579 9.58579 8.25 10 8.25L14 8.25C14.4142 8.25 14.75 8.58579 14.75 9C14.75 9.41421 14.4142 9.75 14 9.75L10 9.75C9.58579 9.75 9.25 9.41421 9.25 9Z" fill="#33836E"/>
<path fill-rule="evenodd" clip-rule="evenodd" d="M6 11.25C6.41421 11.25 6.75 11.5858 6.75 12L6.75 17C6.75 17.4142 6.41421 17.75 6 17.75C5.58579 17.75 5.25 17.4142 5.25 17L5.25 12C5.25 11.5858 5.58579 11.25 6 11.25Z" fill="#33836E"/>
<path fill-rule="evenodd" clip-rule="evenodd" d="M10 11.25C10.4142 11.25 10.75 11.5858 10.75 12L10.75 17C10.75 17.4142 10.4142 17.75 10 17.75C9.58579 17.75 9.25 17.4142 9.25 17L9.25 12C9.25 11.5858 9.58579 11.25 10 11.25Z" fill="#33836E"/>
<path fill-rule="evenodd" clip-rule="evenodd" d="M14 11.25C14.4142 11.25 14.75 11.5858 14.75 12L14.75 17C14.75 17.4142 14.4142 17.75 14 17.75C13.5858 17.75 13.25 17.4142 13.25 17L13.25 12C13.25 11.5858 13.5858 11.25 14 11.25Z" fill="#33836E"/>
<path fill-rule="evenodd" clip-rule="evenodd" d="M18 11.25C18.4142 11.25 18.75 11.5858 18.75 12L18.75 17C18.75 17.4142 18.4142 17.75 18 17.75C17.5858 17.75 17.25 17.4142 17.25 17L17.25 12C17.25 11.5858 17.5858 11.25 18 11.25Z" fill="#33836E"/>
</svg>
