<svg width="24" height="24" viewBox="0 0 24 24" fill="none" xmlns="http://www.w3.org/2000/svg">
<path fill-rule="evenodd" clip-rule="evenodd" d="M7.51173 8.44132C7.81961 8.71841 7.84457 9.19263 7.56748 9.50051L7.55748 9.51162C7.28038 9.8195 6.80616 9.84446 6.49828 9.56737C6.1904 9.29027 6.16544 8.81606 6.44254 8.50817L6.45254 8.49706C6.72963 8.18918 7.20385 8.16422 7.51173 8.44132Z" fill="#33836E"/>
<path fill-rule="evenodd" clip-rule="evenodd" d="M11.5117 8.44132C11.8196 8.71841 11.8446 9.19263 11.5675 9.50051L11.5575 9.51162C11.2804 9.8195 10.8062 9.84446 10.4983 9.56737C10.1904 9.29027 10.1654 8.81606 10.4425 8.50817L10.4525 8.49706C10.7296 8.18918 11.2038 8.16422 11.5117 8.44132Z" fill="#33836E"/>
<path fill-rule="evenodd" clip-rule="evenodd" d="M7.51173 12.4413C7.81961 12.7184 7.84457 13.1926 7.56748 13.5005L7.55748 13.5116C7.28038 13.8195 6.80616 13.8445 6.49828 13.5674C6.1904 13.2903 6.16544 12.8161 6.44254 12.5082L6.45254 12.4971C6.72963 12.1892 7.20385 12.1642 7.51173 12.4413Z" fill="#33836E"/>
<path fill-rule="evenodd" clip-rule="evenodd" d="M11.5117 12.4413C11.8196 12.7184 11.8446 13.1926 11.5675 13.5005L11.5575 13.5116C11.2804 13.8195 10.8062 13.8445 10.4983 13.5674C10.1904 13.2903 10.1654 12.8161 10.4425 12.5082L10.4525 12.4971C10.7296 12.1892 11.2038 12.1642 11.5117 12.4413Z" fill="#33836E"/>
<path fill-rule="evenodd" clip-rule="evenodd" d="M7.51173 16.4413C7.81961 16.7184 7.84457 17.1926 7.56748 17.5005L7.55748 17.5116C7.28038 17.8195 6.80616 17.8445 6.49828 17.5674C6.1904 17.2903 6.16544 16.8161 6.44254 16.5082L6.45254 16.4971C6.72963 16.1892 7.20385 16.1642 7.51173 16.4413Z" fill="#33836E"/>
<path fill-rule="evenodd" clip-rule="evenodd" d="M11.5117 16.4413C11.8196 16.7184 11.8446 17.1926 11.5675 17.5005L11.5575 17.5116C11.2804 17.8195 10.8062 17.8445 10.4983 17.5674C10.1904 17.2903 10.1654 16.8161 10.4425 16.5082L10.4525 16.4971C10.7296 16.1892 11.2038 16.1642 11.5117 16.4413Z" fill="#33836E"/>
<path fill-rule="evenodd" clip-rule="evenodd" d="M20.25 20.25V9.75H15.75V12.25H17C17.4142 12.25 17.75 12.5858 17.75 13C17.75 13.4142 17.4142 13.75 17 13.75H15.75V16.25H17C17.4142 16.25 17.75 16.5858 17.75 17C17.75 17.4142 17.4142 17.75 17 17.75H15.75V20.25H20.25ZM14.25 20.25V3.75H9.75V5C9.75 5.41421 9.41421 5.75 9 5.75H3.75V20.25H14.25ZM15.75 8.25H20.4C21.1456 8.25 21.75 8.85442 21.75 9.6V20.4C21.75 21.1456 21.1456 21.75 20.4 21.75H3.6C2.85442 21.75 2.25 21.1456 2.25 20.4V5.6C2.25 4.85442 2.85442 4.25 3.6 4.25H8.25V3.6C8.25 2.85442 8.85442 2.25 9.6 2.25H14.4C15.1456 2.25 15.75 2.85442 15.75 3.6V8.25Z" fill="#33836E"/>
</svg>
