<svg width="24" height="24" viewBox="0 0 24 24" fill="none" xmlns="http://www.w3.org/2000/svg">
<path fill-rule="evenodd" clip-rule="evenodd" d="M12 12.4038C12.4142 12.4038 12.75 12.7396 12.75 13.1538V21C12.75 21.4142 12.4142 21.75 12 21.75C11.5858 21.75 11.25 21.4142 11.25 21V13.1538C11.25 12.7396 11.5858 12.4038 12 12.4038Z" fill="#33836E"/>
<path fill-rule="evenodd" clip-rule="evenodd" d="M9 7.13452C8.30964 7.13452 7.75 7.69417 7.75 8.38452V11.1538C7.75 11.8441 8.30964 12.4038 9 12.4038H15C15.6904 12.4038 16.25 11.8441 16.25 11.1538V8.38452C16.25 7.69417 15.6904 7.13452 15 7.13452H9ZM6.25 8.38452C6.25 6.86574 7.48122 5.63452 9 5.63452H15C16.5188 5.63452 17.75 6.86574 17.75 8.38452V11.1538C17.75 12.6725 16.5188 13.9038 15 13.9038H9C7.48122 13.9038 6.25 12.6725 6.25 11.1538V8.38452Z" fill="#33836E"/>
<path fill-rule="evenodd" clip-rule="evenodd" d="M15.3334 2.25C15.7476 2.25 16.0834 2.58579 16.0834 3V6.38462C16.0834 6.79883 15.7476 7.13462 15.3334 7.13462C14.9192 7.13462 14.5834 6.79883 14.5834 6.38462V3C14.5834 2.58579 14.9192 2.25 15.3334 2.25Z" fill="#33836E"/>
<path fill-rule="evenodd" clip-rule="evenodd" d="M8.66663 2.25C9.08084 2.25 9.41663 2.58579 9.41663 3V6.38462C9.41663 6.79883 9.08084 7.13462 8.66663 7.13462C8.25241 7.13462 7.91663 6.79883 7.91663 6.38462V3C7.91663 2.58579 8.25241 2.25 8.66663 2.25Z" fill="#33836E"/>
</svg>
