<svg width="24" height="24" viewBox="0 0 24 24" fill="none" xmlns="http://www.w3.org/2000/svg">
<path fill-rule="evenodd" clip-rule="evenodd" d="M0.25 4C0.25 3.58579 0.585786 3.25 1 3.25H19C19.4142 3.25 19.75 3.58579 19.75 4C19.75 4.41421 19.4142 4.75 19 4.75H1.75V16C1.75 16.4142 1.41421 16.75 1 16.75C0.585786 16.75 0.25 16.4142 0.25 16V4Z" fill="#33836E"/>
<path fill-rule="evenodd" clip-rule="evenodd" d="M5.75 8.75V19.25H11.25V8.75H5.75ZM12.75 8.75V19.25H15.25V8.75H12.75ZM16.75 8.75V19.25H22.25V8.75H16.75ZM4.25 8.6C4.25 7.85442 4.85442 7.25 5.6 7.25H22.4C23.1456 7.25 23.75 7.85442 23.75 8.6V19.4C23.75 20.1456 23.1456 20.75 22.4 20.75H5.6C4.85442 20.75 4.25 20.1456 4.25 19.4V8.6Z" fill="#33836E"/>
</svg>
