<svg width="24" height="24" viewBox="0 0 24 24" fill="none" xmlns="http://www.w3.org/2000/svg">
<path fill-rule="evenodd" clip-rule="evenodd" d="M11.5 3.75C7.21979 3.75 3.75 7.21979 3.75 11.5C3.75 13.0079 4.1799 14.4131 4.92348 15.6024C5.14308 15.9536 5.03638 16.4163 4.68516 16.6359C4.33395 16.8555 3.87122 16.7488 3.65162 16.3976C2.7633 14.9768 2.25 13.2972 2.25 11.5C2.25 6.39137 6.39137 2.25 11.5 2.25C11.9142 2.25 12.25 2.58579 12.25 3C12.25 3.41421 11.9142 3.75 11.5 3.75Z" fill="#33836E"/>
<path fill-rule="evenodd" clip-rule="evenodd" d="M19.25 9.5C19.25 9.08579 19.5858 8.75 20 8.75H22.5C22.9142 8.75 23.25 9.08579 23.25 9.5C23.25 9.91421 22.9142 10.25 22.5 10.25H20.75V11.5C20.75 13.2972 20.2367 14.9768 19.3484 16.3976C19.1288 16.7488 18.6661 16.8555 18.3148 16.6359C17.9636 16.4163 17.8569 15.9536 18.0765 15.6024C18.8201 14.4131 19.25 13.0079 19.25 11.5V9.5Z" fill="#33836E"/>
<path fill-rule="evenodd" clip-rule="evenodd" d="M8 17.75C8.69036 17.75 9.25 18.3096 9.25 19C9.25 19.6904 8.69036 20.25 8 20.25C7.30964 20.25 6.75 19.6904 6.75 19C6.75 18.3096 7.30964 17.75 8 17.75ZM10.75 19C10.75 17.4812 9.51878 16.25 8 16.25C6.48122 16.25 5.25 17.4812 5.25 19C5.25 20.5188 6.48122 21.75 8 21.75C9.51878 21.75 10.75 20.5188 10.75 19Z" fill="#33836E"/>
<path fill-rule="evenodd" clip-rule="evenodd" d="M15 17.75C15.6904 17.75 16.25 18.3096 16.25 19C16.25 19.6904 15.6904 20.25 15 20.25C14.3096 20.25 13.75 19.6904 13.75 19C13.75 18.3096 14.3096 17.75 15 17.75ZM17.75 19C17.75 17.4812 16.5188 16.25 15 16.25C13.4812 16.25 12.25 17.4812 12.25 19C12.25 20.5188 13.4812 21.75 15 21.75C16.5188 21.75 17.75 20.5188 17.75 19Z" fill="#33836E"/>
<path fill-rule="evenodd" clip-rule="evenodd" d="M11.5 2.25C11.9142 2.25 12.25 2.58579 12.25 3V12C12.25 12.4142 11.9142 12.75 11.5 12.75C11.0858 12.75 10.75 12.4142 10.75 12V3C10.75 2.58579 11.0858 2.25 11.5 2.25Z" fill="#33836E"/>
<path fill-rule="evenodd" clip-rule="evenodd" d="M2.75 12C2.75 11.5858 3.08579 11.25 3.5 11.25H19.5C19.9142 11.25 20.25 11.5858 20.25 12C20.25 12.4142 19.9142 12.75 19.5 12.75H3.5C3.08579 12.75 2.75 12.4142 2.75 12Z" fill="#33836E"/>
</svg>
